# xmcd
#
# Track frame offsets: 
#        150
#        19105
#        38228
#        52465
#        68432
#        80101
#        99212
#        116786
#        133645
#        150124
#        166141
#        180081
#        196314
#        214962
#        230517
#        244548
#        262047
#        277913
#        291084
#        308799
#
# Disc length: 4344 seconds
#
# Revision: 0
# Processed by: cddbd v1.5.2PL0 Copyright (c) Steve Scherf et al.
# Submitted via: ExactAudioCopy v0.99pb4
#
DISCID=0f10f614
DTITLE=жаров - ушаночка
DYEAR=2005
DGENRE=Chanson
TTITLE0=ушаночка
TTITLE1=скользкая дорога
TTITLE2=пошла братва на липецк 
TTITLE3=дачная цыганская
TTITLE4=лохам лэхаим
TTITLE5=степью белой
TTITLE6=телогреечка-2
TTITLE7=мурманск
TTITLE8=наташка
TTITLE9=аксинья
TTITLE10=колымский шансон
TTITLE11=зимнее гадание
TTITLE12=на пересылке
TTITLE13=колыбельная
TTITLE14=мыкаюсь по свету
TTITLE15=гармошка
TTITLE16=киллер
TTITLE17=а зохэн вэй
TTITLE18=хорошево
TTITLE19=в девятнадцать лет
EXTD=
EXTT0=
EXTT1=
EXTT2=
EXTT3=
EXTT4=
EXTT5=
EXTT6=
EXTT7=
EXTT8=
EXTT9=
EXTT10=
EXTT11=
EXTT12=
EXTT13=
EXTT14=
EXTT15=
EXTT16=
EXTT17=
EXTT18=
EXTT19=
PLAYORDER=
